<svg width="230" height="36" viewBox="0 0 230 36" fill="none" xmlns="http://www.w3.org/2000/svg">
<rect width="230" height="36" rx="18" fill="#03A8E2" fill-opacity="0.2"/>
<g clip-path="url(#clip0_229_3295)">
<path d="M52.6995 20.317C51.9076 20.0411 51.2814 19.4328 50.982 18.6487L50.8095 18.1967H48.8657C48.1224 16.3189 46.6173 14.8229 44.7341 14.092C45.868 13.2761 46.6074 11.9453 46.6074 10.4447C46.6074 7.9682 44.5925 5.95312 42.1158 5.95312C39.6392 5.95312 37.6243 7.9682 37.6243 10.4447C37.6243 11.9453 38.3636 13.2761 39.4976 14.0925C36.7864 15.1445 34.8594 17.7814 34.8594 20.8601V24.9976H43.3853C43.5761 25.5412 43.8239 26.0665 44.1267 26.5631C44.9205 27.8668 46.0565 28.9268 47.4125 29.6274L48.0424 29.9531L48.6721 29.6274C50.0278 28.9268 51.1644 27.8668 51.9576 26.5631C52.7515 25.2596 53.1708 23.7636 53.1708 22.2374V20.4814L52.6995 20.317ZM51.7651 22.2374C51.7651 24.8275 50.3391 27.1762 48.0424 28.3705C46.6056 27.6231 45.5095 26.4245 44.8901 24.9976C44.6956 24.5491 44.5479 24.0782 44.4519 23.5917C44.3642 23.1511 44.3193 22.6981 44.3193 22.2374V21.4479C45.1318 21.0504 45.7941 20.4047 46.2125 19.6024H49.8718C50.2904 20.4047 50.9529 21.0504 51.7651 21.4479V22.2374ZM39.03 10.4447C39.03 8.74329 40.4142 7.35901 42.1158 7.35901C43.8174 7.35901 45.2017 8.74329 45.2017 10.4447C45.2017 12.1463 43.8174 13.5306 42.1158 13.5306C40.4142 13.5306 39.03 12.1463 39.03 10.4447ZM36.2653 23.5917V20.8601C36.2653 17.6342 38.8899 15.0095 42.1158 15.0095C44.3831 15.0095 46.3535 16.3063 47.3239 18.1967H45.2751L45.1028 18.6487C44.8033 19.4328 44.1772 20.0411 43.3853 20.317L42.9135 20.4814V22.2374C42.9135 22.693 42.951 23.1456 43.025 23.5917H36.2653Z" fill="#6FB9FE"/>
<path d="M49.3723 21.7391L47.9664 23.0981L47.4979 23.551L46.3525 22.4694L45.3872 23.4913L45.4936 23.5916L46.9819 24.9975L47.509 25.4952L48.0241 24.9975L49.3723 23.6943L50.6286 22.4802L49.6516 21.4692L49.3723 21.7391Z" fill="#6FB9FE"/>
</g>
<path d="M69.7576 24L66.4296 12.48H67.6536L70.3496 21.992L73.0296 12.488L74.2616 12.48L76.9576 21.992L79.6376 12.48H80.8696L77.5496 24H76.3656L73.6456 14.552L70.9416 24H69.7576ZM82.5819 13.72V12.4H83.7579V13.72H82.5819ZM82.5819 24V15.36H83.7579V24H82.5819ZM90.2923 24.24C89.4496 24.24 88.7189 24.0533 88.1003 23.68C87.4869 23.3067 87.0096 22.7813 86.6683 22.104C86.3269 21.4267 86.1563 20.632 86.1563 19.72C86.1563 18.776 86.3243 17.96 86.6603 17.272C86.9963 16.584 87.4683 16.0533 88.0763 15.68C88.6896 15.3067 89.4123 15.12 90.2443 15.12C91.0976 15.12 91.8256 15.3173 92.4283 15.712C93.0309 16.1013 93.4869 16.6613 93.7963 17.392C94.1056 18.1227 94.2469 18.9947 94.2203 20.008H93.0203V19.592C92.9989 18.472 92.7563 17.6267 92.2923 17.056C91.8336 16.4853 91.1616 16.2 90.2763 16.2C89.3483 16.2 88.6363 16.5013 88.1403 17.104C87.6496 17.7067 87.4043 18.5653 87.4043 19.68C87.4043 20.768 87.6496 21.6133 88.1403 22.216C88.6363 22.8133 89.3376 23.112 90.2443 23.112C90.8629 23.112 91.4016 22.9707 91.8603 22.688C92.3243 22.4 92.6896 21.9867 92.9563 21.448L94.0523 21.872C93.7109 22.624 93.2069 23.208 92.5403 23.624C91.8789 24.0347 91.1296 24.24 90.2923 24.24ZM86.9883 20.008V19.024H93.5883V20.008H86.9883ZM102.631 24.24C101.98 24.24 101.433 24.1227 100.991 23.888C100.553 23.6533 100.225 23.3413 100.007 22.952C99.7881 22.5627 99.6787 22.1387 99.6787 21.68C99.6787 21.2107 99.7721 20.8107 99.9587 20.48C100.151 20.144 100.409 19.8693 100.735 19.656C101.065 19.4427 101.447 19.28 101.879 19.168C102.316 19.0613 102.799 18.968 103.327 18.888C103.86 18.8027 104.38 18.7307 104.887 18.672C105.399 18.608 105.847 18.5467 106.231 18.488L105.815 18.744C105.831 17.8907 105.665 17.2587 105.319 16.848C104.972 16.4373 104.369 16.232 103.511 16.232C102.919 16.232 102.417 16.3653 102.007 16.632C101.601 16.8987 101.316 17.32 101.151 17.896L100.007 17.56C100.204 16.7867 100.601 16.1867 101.199 15.76C101.796 15.3333 102.572 15.12 103.527 15.12C104.316 15.12 104.985 15.2693 105.535 15.568C106.089 15.8613 106.481 16.288 106.711 16.848C106.817 17.0987 106.887 17.3787 106.919 17.688C106.951 17.9973 106.967 18.312 106.967 18.632V24H105.919V21.832L106.223 21.96C105.929 22.7013 105.473 23.2667 104.855 23.656C104.236 24.0453 103.495 24.24 102.631 24.24ZM102.767 23.224C103.316 23.224 103.796 23.1253 104.207 22.928C104.617 22.7307 104.948 22.4613 105.199 22.12C105.449 21.7733 105.612 21.384 105.687 20.952C105.751 20.6747 105.785 20.3707 105.791 20.04C105.796 19.704 105.799 19.4533 105.799 19.288L106.247 19.52C105.847 19.5733 105.412 19.6267 104.943 19.68C104.479 19.7333 104.02 19.7947 103.567 19.864C103.119 19.9333 102.713 20.016 102.351 20.112C102.105 20.1813 101.868 20.28 101.639 20.408C101.409 20.5307 101.22 20.696 101.071 20.904C100.927 21.112 100.855 21.3707 100.855 21.68C100.855 21.9307 100.916 22.1733 101.039 22.408C101.167 22.6427 101.369 22.8373 101.647 22.992C101.929 23.1467 102.303 23.224 102.767 23.224ZM109.689 24V12.24H110.865V24H109.689ZM113.904 24V12.24H115.08V24H113.904ZM121.614 24.24C120.771 24.24 120.041 24.0533 119.422 23.68C118.809 23.3067 118.331 22.7813 117.99 22.104C117.649 21.4267 117.478 20.632 117.478 19.72C117.478 18.776 117.646 17.96 117.982 17.272C118.318 16.584 118.79 16.0533 119.398 15.68C120.011 15.3067 120.734 15.12 121.566 15.12C122.419 15.12 123.147 15.3173 123.75 15.712C124.353 16.1013 124.809 16.6613 125.118 17.392C125.427 18.1227 125.569 18.9947 125.542 20.008H124.342V19.592C124.321 18.472 124.078 17.6267 123.614 17.056C123.155 16.4853 122.483 16.2 121.598 16.2C120.67 16.2 119.958 16.5013 119.462 17.104C118.971 17.7067 118.726 18.5653 118.726 19.68C118.726 20.768 118.971 21.6133 119.462 22.216C119.958 22.8133 120.659 23.112 121.566 23.112C122.185 23.112 122.723 22.9707 123.182 22.688C123.646 22.4 124.011 21.9867 124.278 21.448L125.374 21.872C125.033 22.624 124.529 23.208 123.862 23.624C123.201 24.0347 122.451 24.24 121.614 24.24ZM118.31 20.008V19.024H124.91V20.008H118.31ZM131.022 24.232C130.008 24.232 129.174 24.0133 128.518 23.576C127.867 23.1387 127.467 22.5307 127.318 21.752L128.518 21.552C128.646 22.0427 128.936 22.4347 129.39 22.728C129.848 23.016 130.414 23.16 131.086 23.16C131.742 23.16 132.259 23.024 132.638 22.752C133.016 22.4747 133.206 22.0987 133.206 21.624C133.206 21.3573 133.144 21.1413 133.022 20.976C132.904 20.8053 132.662 20.648 132.294 20.504C131.926 20.36 131.376 20.1893 130.646 19.992C129.862 19.7787 129.248 19.5653 128.806 19.352C128.363 19.1387 128.048 18.8933 127.862 18.616C127.675 18.3333 127.582 17.9893 127.582 17.584C127.582 17.0933 127.72 16.664 127.998 16.296C128.275 15.9227 128.659 15.6347 129.15 15.432C129.64 15.224 130.211 15.12 130.862 15.12C131.512 15.12 132.094 15.2267 132.606 15.44C133.123 15.648 133.539 15.9413 133.854 16.32C134.168 16.6987 134.355 17.1387 134.414 17.64L133.214 17.856C133.134 17.3493 132.88 16.9493 132.454 16.656C132.032 16.3573 131.496 16.2027 130.846 16.192C130.232 16.176 129.734 16.2933 129.35 16.544C128.966 16.7893 128.774 17.1173 128.774 17.528C128.774 17.7573 128.843 17.9547 128.982 18.12C129.12 18.28 129.371 18.432 129.734 18.576C130.102 18.72 130.624 18.8773 131.302 19.048C132.096 19.2507 132.72 19.464 133.174 19.688C133.627 19.912 133.95 20.176 134.142 20.48C134.334 20.784 134.43 21.16 134.43 21.608C134.43 22.424 134.126 23.0667 133.518 23.536C132.915 24 132.083 24.232 131.022 24.232ZM144.247 24.24C143.452 24.24 142.78 24.04 142.231 23.64C141.682 23.2347 141.266 22.688 140.983 22C140.7 21.3067 140.559 20.5307 140.559 19.672C140.559 18.7973 140.7 18.0187 140.983 17.336C141.271 16.648 141.692 16.1067 142.247 15.712C142.802 15.3173 143.484 15.12 144.295 15.12C145.084 15.12 145.762 15.32 146.327 15.72C146.892 16.12 147.324 16.664 147.623 17.352C147.927 18.04 148.079 18.8133 148.079 19.672C148.079 20.536 147.927 21.312 147.623 22C147.319 22.688 146.882 23.2347 146.311 23.64C145.74 24.04 145.052 24.24 144.247 24.24ZM140.359 24V12.48H141.543V17.496H141.415V24H140.359ZM144.127 23.144C144.73 23.144 145.231 22.992 145.631 22.688C146.031 22.384 146.33 21.9707 146.527 21.448C146.73 20.92 146.831 20.328 146.831 19.672C146.831 19.0213 146.732 18.4347 146.535 17.912C146.338 17.3893 146.036 16.976 145.631 16.672C145.231 16.368 144.722 16.216 144.103 16.216C143.5 16.216 142.999 16.3627 142.599 16.656C142.204 16.9493 141.908 17.3573 141.711 17.88C141.514 18.3973 141.415 18.9947 141.415 19.672C141.415 20.3387 141.514 20.936 141.711 21.464C141.908 21.9867 142.207 22.3973 142.607 22.696C143.007 22.9947 143.514 23.144 144.127 23.144ZM153.972 24.24C153.129 24.24 152.398 24.0533 151.78 23.68C151.166 23.3067 150.689 22.7813 150.348 22.104C150.006 21.4267 149.836 20.632 149.836 19.72C149.836 18.776 150.004 17.96 150.34 17.272C150.676 16.584 151.148 16.0533 151.756 15.68C152.369 15.3067 153.092 15.12 153.924 15.12C154.777 15.12 155.505 15.3173 156.108 15.712C156.71 16.1013 157.166 16.6613 157.476 17.392C157.785 18.1227 157.926 18.9947 157.9 20.008H156.7V19.592C156.678 18.472 156.436 17.6267 155.972 17.056C155.513 16.4853 154.841 16.2 153.956 16.2C153.028 16.2 152.316 16.5013 151.82 17.104C151.329 17.7067 151.084 18.5653 151.084 19.68C151.084 20.768 151.329 21.6133 151.82 22.216C152.316 22.8133 153.017 23.112 153.924 23.112C154.542 23.112 155.081 22.9707 155.54 22.688C156.004 22.4 156.369 21.9867 156.636 21.448L157.732 21.872C157.39 22.624 156.886 23.208 156.22 23.624C155.558 24.0347 154.809 24.24 153.972 24.24ZM150.668 20.008V19.024H157.268V20.008H150.668ZM163.587 28.08C163.144 28.08 162.707 28.0133 162.275 27.88C161.848 27.752 161.454 27.5467 161.091 27.264C160.728 26.9867 160.424 26.624 160.179 26.176L161.243 25.584C161.483 26.064 161.819 26.408 162.251 26.616C162.688 26.8293 163.134 26.936 163.587 26.936C164.211 26.936 164.715 26.8187 165.099 26.584C165.488 26.3547 165.771 26.0133 165.947 25.56C166.123 25.1067 166.208 24.5413 166.203 23.864V21.56H166.339V15.36H167.387V23.88C167.387 24.1253 167.379 24.36 167.363 24.584C167.352 24.8133 167.328 25.0373 167.291 25.256C167.19 25.9013 166.979 26.432 166.659 26.848C166.344 27.264 165.928 27.5733 165.411 27.776C164.899 27.9787 164.291 28.08 163.587 28.08ZM163.507 24.24C162.702 24.24 162.014 24.04 161.443 23.64C160.872 23.2347 160.435 22.688 160.131 22C159.827 21.312 159.675 20.536 159.675 19.672C159.675 18.8133 159.824 18.04 160.123 17.352C160.427 16.664 160.862 16.12 161.427 15.72C161.992 15.32 162.67 15.12 163.459 15.12C164.27 15.12 164.952 15.3173 165.507 15.712C166.062 16.1067 166.48 16.648 166.763 17.336C167.051 18.0187 167.195 18.7973 167.195 19.672C167.195 20.5307 167.054 21.3067 166.771 22C166.488 22.688 166.072 23.2347 165.523 23.64C164.974 24.04 164.302 24.24 163.507 24.24ZM163.627 23.144C164.24 23.144 164.747 22.9947 165.147 22.696C165.547 22.3973 165.846 21.9867 166.043 21.464C166.24 20.936 166.339 20.3387 166.339 19.672C166.339 18.9947 166.24 18.3973 166.043 17.88C165.846 17.3573 165.547 16.9493 165.147 16.656C164.752 16.3627 164.254 16.216 163.651 16.216C163.032 16.216 162.52 16.368 162.115 16.672C161.71 16.976 161.408 17.3893 161.211 17.912C161.019 18.4347 160.923 19.0213 160.923 19.672C160.923 20.328 161.022 20.92 161.219 21.448C161.422 21.9707 161.723 22.384 162.123 22.688C162.523 22.992 163.024 23.144 163.627 23.144ZM172.576 24.24C171.925 24.24 171.378 24.1227 170.936 23.888C170.498 23.6533 170.17 23.3413 169.952 22.952C169.733 22.5627 169.624 22.1387 169.624 21.68C169.624 21.2107 169.717 20.8107 169.904 20.48C170.096 20.144 170.354 19.8693 170.68 19.656C171.01 19.4427 171.392 19.28 171.824 19.168C172.261 19.0613 172.744 18.968 173.272 18.888C173.805 18.8027 174.325 18.7307 174.832 18.672C175.344 18.608 175.792 18.5467 176.176 18.488L175.76 18.744C175.776 17.8907 175.61 17.2587 175.264 16.848C174.917 16.4373 174.314 16.232 173.456 16.232C172.864 16.232 172.362 16.3653 171.952 16.632C171.546 16.8987 171.261 17.32 171.096 17.896L169.952 17.56C170.149 16.7867 170.546 16.1867 171.144 15.76C171.741 15.3333 172.517 15.12 173.472 15.12C174.261 15.12 174.93 15.2693 175.48 15.568C176.034 15.8613 176.426 16.288 176.656 16.848C176.762 17.0987 176.832 17.3787 176.864 17.688C176.896 17.9973 176.912 18.312 176.912 18.632V24H175.864V21.832L176.168 21.96C175.874 22.7013 175.418 23.2667 174.8 23.656C174.181 24.0453 173.44 24.24 172.576 24.24ZM172.712 23.224C173.261 23.224 173.741 23.1253 174.152 22.928C174.562 22.7307 174.893 22.4613 175.144 22.12C175.394 21.7733 175.557 21.384 175.632 20.952C175.696 20.6747 175.73 20.3707 175.736 20.04C175.741 19.704 175.744 19.4533 175.744 19.288L176.192 19.52C175.792 19.5733 175.357 19.6267 174.888 19.68C174.424 19.7333 173.965 19.7947 173.512 19.864C173.064 19.9333 172.658 20.016 172.296 20.112C172.05 20.1813 171.813 20.28 171.584 20.408C171.354 20.5307 171.165 20.696 171.016 20.904C170.872 21.112 170.8 21.3707 170.8 21.68C170.8 21.9307 170.861 22.1733 170.984 22.408C171.112 22.6427 171.314 22.8373 171.592 22.992C171.874 23.1467 172.248 23.224 172.712 23.224ZM185.714 24V19.592C185.714 19.112 185.669 18.672 185.578 18.272C185.488 17.8667 185.341 17.5147 185.138 17.216C184.941 16.912 184.682 16.6773 184.362 16.512C184.048 16.3467 183.664 16.264 183.21 16.264C182.794 16.264 182.426 16.336 182.106 16.48C181.792 16.624 181.525 16.832 181.306 17.104C181.093 17.3707 180.93 17.696 180.818 18.08C180.706 18.464 180.65 18.9013 180.65 19.392L179.818 19.208C179.818 18.3227 179.973 17.5787 180.282 16.976C180.592 16.3733 181.018 15.9173 181.562 15.608C182.106 15.2987 182.73 15.144 183.434 15.144C183.952 15.144 184.402 15.224 184.786 15.384C185.176 15.544 185.504 15.76 185.77 16.032C186.042 16.304 186.261 16.616 186.426 16.968C186.592 17.3147 186.712 17.6853 186.786 18.08C186.861 18.4693 186.898 18.8587 186.898 19.248V24H185.714ZM179.466 24V15.36H180.53V17.488H180.65V24H179.466ZM195.694 24V19.592C195.694 19.112 195.649 18.672 195.558 18.272C195.468 17.8667 195.321 17.5147 195.118 17.216C194.921 16.912 194.662 16.6773 194.342 16.512C194.028 16.3467 193.644 16.264 193.19 16.264C192.774 16.264 192.406 16.336 192.086 16.48C191.772 16.624 191.505 16.832 191.286 17.104C191.073 17.3707 190.91 17.696 190.798 18.08C190.686 18.464 190.63 18.9013 190.63 19.392L189.798 19.208C189.798 18.3227 189.953 17.5787 190.262 16.976C190.572 16.3733 190.998 15.9173 191.542 15.608C192.086 15.2987 192.71 15.144 193.414 15.144C193.932 15.144 194.382 15.224 194.766 15.384C195.156 15.544 195.484 15.76 195.75 16.032C196.022 16.304 196.241 16.616 196.406 16.968C196.572 17.3147 196.692 17.6853 196.766 18.08C196.841 18.4693 196.878 18.8587 196.878 19.248V24H195.694ZM189.446 24V15.36H190.51V17.488H190.63V24H189.446Z" fill="#0069D1"/>
<defs>
<clipPath id="clip0_229_3295">
<rect width="24" height="24" fill="white" transform="translate(32 6)"/>
</clipPath>
</defs>
</svg>
